<?xml version="1.0" ?><!DOCTYPE svg  PUBLIC '-//W3C//DTD SVG 1.1//EN'  'http://www.w3.org/Graphics/SVG/1.1/DTD/svg11.dtd'><svg height="512px" style="enable-background:new 0 0 512 512;" version="1.1" viewBox="0 0 512 512" width="512px" xml:space="preserve" xmlns="http://www.w3.org/2000/svg" xmlns:xlink="http://www.w3.org/1999/xlink"><g id="_x35_18_x2C__Distribution_x2C__grid_x2C__infrastructure_x2C__network_x2C__smart"><g><path d="M231.219,144.535c0,1.327,0.846,2.681,1.948,3.132    c2.313,1.157,4.994-0.62,4.994-3.132v-6.912c0-1.325-0.877-2.679-1.976-3.131c-2.313-1.156-4.966,0.621-4.966,3.131V144.535z     M231.219,200c0,1.297,0.846,2.68,1.948,3.104c2.313,1.156,4.994-0.593,4.994-3.104v-6.94c0-1.298-0.877-2.681-1.976-3.103    c-2.313-1.156-4.966,0.592-4.966,3.103V200z M231.219,227.732c0,1.297,0.846,2.68,1.948,3.103    c2.313,1.157,4.994-0.593,4.994-3.103v-6.94c0-1.298-0.877-2.681-1.976-3.104c-2.313-1.156-4.966,0.593-4.966,3.104V227.732z     M231.219,255.464c0,1.298,0.846,2.681,1.948,3.104c2.313,1.156,4.994-0.593,4.994-3.104v-6.94c0-1.297-0.877-2.68-1.976-3.104    c-2.313-1.156-4.966,0.593-4.966,3.104V255.464z M231.219,283.195c0,1.299,0.846,2.652,1.948,3.104    c2.313,1.156,4.994-0.592,4.994-3.104v-6.939c0-1.326-0.877-2.68-1.976-3.131c-2.313-1.158-4.966,0.62-4.966,3.131V283.195z     M231.219,310.9c0,1.325,0.846,2.68,1.948,3.131c2.313,1.156,4.994-0.621,4.994-3.131v-6.912c0-1.326-0.877-2.681-1.976-3.132    c-2.313-1.157-4.966,0.62-4.966,3.132V310.9z M231.219,338.632c0,1.326,0.846,2.68,1.948,3.132    c2.313,1.128,4.994-0.621,4.994-3.132v-6.94c0-1.297-0.877-2.68-1.976-3.103c-2.313-1.157-4.966,0.593-4.966,3.103V338.632z     M160.605,44.131c4.825,0,9.17,1.947,12.329,5.105l0.2,0.227c3.018,3.132,4.906,7.392,4.906,12.104    c0,4.598-1.776,8.801-4.71,11.904l24.514,34.447h33.997c-0.397,0.563-0.622,1.212-0.622,1.975v6.911    c0,1.327,0.846,2.681,1.948,3.132c2.313,1.156,4.994-0.621,4.994-3.132v-6.911c0-0.705-0.256-1.411-0.621-1.975h35.264    l23.611-33.178c-2.934-3.104-4.71-7.307-4.71-11.904c0-4.797,1.948-9.169,5.106-12.33c3.131-3.131,7.504-5.078,12.302-5.078    c4.822,0,9.194,1.947,12.328,5.078l0.197,0.227c3.046,3.132,4.909,7.42,4.909,12.104c0,4.795-1.948,9.168-5.106,12.299    c-3.162,3.189-7.535,5.135-12.328,5.135c-2.514,0-4.91-0.536-7.083-1.523l-24.514,34.475l9.392,34.87    c-2.85,1.212-5.443,2.99-7.588,5.134c-2.229,2.229-4.036,4.91-5.274,7.928c-0.762,1.862-1.299,3.809-1.607,5.812h-34.277v-1.636    c0-1.299-0.877-2.652-1.976-3.104c-2.313-1.156-4.966,0.592-4.966,3.104v1.636h-34.305c-0.281-1.946-0.79-3.837-1.523-5.642    c-1.158-2.821-2.822-5.445-4.938-7.646l-0.393-0.451c-2.172-2.144-4.741-3.922-7.619-5.134l9.763-36.195l-24.517-34.419    c-2.145,0.959-4.542,1.496-7.082,1.496c-4.794,0-9.139-1.947-12.297-5.107c-3.162-3.131-5.106-7.504-5.106-12.299    c0-4.797,1.944-9.17,5.078-12.33C151.438,46.078,155.811,44.131,160.605,44.131z M171.579,422.646    c-3.159,3.131-7.532,5.105-12.326,5.105c-4.685,0-8.974-1.89-12.104-4.908l-0.225-0.197c-3.134-3.16-5.078-7.533-5.078-12.329    c0-4.683,1.86-8.972,4.878-12.103l0.2-0.226c3.159-3.132,7.531-5.078,12.329-5.078c2.538,0,4.935,0.536,7.079,1.495l25.928-36.421    l-10.525-39.045l0.396-0.169c2.99-1.242,5.671-3.076,7.928-5.332c2.2-2.201,4.004-4.881,5.247-7.871    c0.762-1.835,1.327-3.809,1.607-5.84h75.524c0.309,2.031,0.846,4.005,1.607,5.867c1.238,2.963,3.046,5.643,5.303,7.899    c2.229,2.229,4.909,4.034,7.899,5.276l0.365,0.141l-10.381,38.509l25.447,35.743c2.145-0.959,4.541-1.494,7.082-1.494    c4.795,0,9.167,1.946,12.329,5.078c3.13,3.188,5.078,7.532,5.078,12.328s-1.948,9.169-5.106,12.328    c-3.162,3.132-7.506,5.106-12.301,5.106c-4.713,0-8.974-1.89-12.104-4.909l-0.225-0.197c-3.162-3.159-5.106-7.504-5.106-12.328    c0-4.599,1.805-8.803,4.71-11.906l-25.219-35.461h-33.656v-2.285c0-1.299-0.877-2.68-1.976-3.104    c-2.313-1.156-4.966,0.593-4.966,3.104v2.285H198.1l-26.125,36.703c2.906,3.131,4.71,7.307,4.71,11.905    C176.686,415.113,174.741,419.486,171.579,422.646z M172.821,153.027c4.797,0,9.17,1.947,12.329,5.107l0.196,0.197    c3.018,3.131,4.91,7.42,4.91,12.102c0,4.796-1.976,9.169-5.106,12.329c-3.159,3.159-7.532,5.106-12.329,5.106    c-4.794,0-9.167-1.947-12.301-5.106c-2.397-2.37-4.088-5.417-4.766-8.858H89.513c-0.677,3.441-2.369,6.488-4.738,8.858    l-0.228,0.198c-3.13,3.047-7.419,4.908-12.101,4.908c-4.798,0-9.17-1.947-12.301-5.106c-3.162-3.16-5.135-7.504-5.135-12.329    c0-4.795,1.973-9.141,5.106-12.299c3.159-3.16,7.531-5.107,12.329-5.107c4.822,0,9.167,1.947,12.329,5.107l0.197,0.197    c2.256,2.342,3.864,5.331,4.541,8.632h66.242c0.677-3.413,2.369-6.46,4.738-8.829    C163.654,154.975,168.027,153.027,172.821,153.027z M296.531,153.027c4.822,0,9.167,1.947,12.325,5.107l0.2,0.197    c2.257,2.342,3.893,5.331,4.569,8.632h66.214c0.678-3.413,2.369-6.46,4.738-8.829c3.158-3.16,7.531-5.107,12.328-5.107    c4.798,0,9.171,1.947,12.329,5.107c3.131,3.131,5.078,7.504,5.078,12.299c0,4.825-1.947,9.169-5.078,12.329    c-3.158,3.159-7.531,5.106-12.329,5.106c-4.797,0-9.17-1.947-12.301-5.106c-2.396-2.37-4.088-5.417-4.766-8.858h-66.214    c-0.706,3.414-2.397,6.488-4.77,8.858c-3.158,3.159-7.531,5.106-12.325,5.106c-4.798,0-9.143-1.947-12.301-5.106    c-3.162-3.16-5.106-7.504-5.106-12.329c0-4.795,1.944-9.168,5.106-12.299C287.36,154.975,291.733,153.027,296.531,153.027z     M296.531,278.852c4.822,0,9.167,1.946,12.325,5.105l0.2,0.227c2.257,2.342,3.893,5.303,4.569,8.633h66.214    c0.678-3.441,2.369-6.489,4.738-8.859c3.158-3.159,7.531-5.105,12.328-5.105c4.798,0,9.171,1.946,12.329,5.105    c3.131,3.16,5.078,7.505,5.078,12.33c0,4.795-1.947,9.168-5.078,12.299c-3.158,3.16-7.531,5.107-12.329,5.107    c-4.797,0-9.17-1.947-12.301-5.107c-2.396-2.369-4.088-5.416-4.766-8.857h-66.214c-0.706,3.413-2.397,6.488-4.77,8.857    c-3.158,3.16-7.503,5.107-12.325,5.107c-4.798,0-9.143-1.947-12.301-5.107c-3.162-3.131-5.106-7.504-5.106-12.299    c0-4.825,1.944-9.17,5.106-12.33C287.36,280.798,291.733,278.852,296.531,278.852z M172.821,278.852    c4.797,0,9.17,1.946,12.329,5.105l0.196,0.227c3.018,3.132,4.91,7.391,4.91,12.104c0,4.768-1.976,9.14-5.106,12.299    c-3.159,3.16-7.532,5.107-12.329,5.107c-4.794,0-9.167-1.947-12.301-5.107c-2.397-2.369-4.088-5.416-4.766-8.857H89.513    c-0.677,3.413-2.369,6.488-4.738,8.857c-3.162,3.16-7.535,5.107-12.329,5.107c-4.798,0-9.17-1.947-12.329-5.107l-0.2-0.225    c-3.018-3.132-4.906-7.393-4.906-12.074c0-4.797,1.973-9.17,5.106-12.33c3.159-3.159,7.531-5.105,12.329-5.105    c4.822,0,9.167,1.946,12.329,5.105l0.197,0.227c2.256,2.342,3.864,5.303,4.541,8.633h66.242c0.677-3.441,2.369-6.489,4.738-8.859    C163.654,280.798,168.027,278.852,172.821,278.852z M41.573,449.165c-1.917,0-3.468-1.552-3.468-3.471    c0-1.918,1.551-3.47,3.468-3.47H348.89c1.919,0,3.471,1.552,3.471,3.47c0,1.919-1.552,3.471-3.471,3.471H41.573z M221.516,467.869    c-1.892,0-3.443-1.58-3.443-3.47c0-1.919,1.551-3.47,3.443-3.47h212.658c1.92,0,3.471,1.551,3.471,3.47    c0,1.89-1.551,3.47-3.471,3.47H221.516z M455.954,467.869c-1.92,0-3.472-1.58-3.472-3.47c0-1.919,1.552-3.47,3.472-3.47h26.573    c1.92,0,3.472,1.551,3.472,3.47c0,1.89-1.552,3.47-3.472,3.47H455.954z M29.472,467.276c-1.919,0-3.471-1.552-3.471-3.47    c0-1.891,1.551-3.441,3.471-3.441h100.779c1.888,0,3.443,1.551,3.443,3.441c0,1.918-1.555,3.47-3.443,3.47H29.472z     M309.394,231.344l-9.929-36.732c-0.962,0.141-1.947,0.197-2.934,0.197c-3.246,0-6.405-0.677-9.283-1.861    c-2.99-1.241-5.671-3.047-7.899-5.275c-2.257-2.258-4.064-4.938-5.303-7.9c-0.762-1.861-1.299-3.836-1.607-5.867h-34.702    c-0.846,1.552-2.821,2.369-4.569,1.494c-0.621-0.253-1.186-0.816-1.523-1.494h-34.73c-0.281,2.031-0.846,3.978-1.607,5.84    c-1.242,2.99-3.046,5.643-5.247,7.871c-2.285,2.285-4.966,4.091-7.928,5.332c-2.906,1.185-6.036,1.861-9.311,1.861    c-0.986,0-1.976-0.057-2.934-0.197l-9.9,36.732H63.813c-1.92,0-3.471,1.551-3.471,3.469s1.551,3.471,3.471,3.471h96.174    l9.139,33.91c1.214-0.169,2.453-0.282,3.695-0.282c3.246,0,6.405,0.677,9.283,1.862c3.018,1.241,5.728,3.047,7.956,5.275    l0.393,0.479c2.116,2.2,3.78,4.796,4.938,7.618c0.733,1.805,1.242,3.723,1.523,5.67h75.524c0.309-2.031,0.846-3.979,1.607-5.84    c1.238-3.02,3.046-5.699,5.274-7.928s4.91-4.034,7.9-5.275c2.905-1.186,6.064-1.862,9.311-1.862c1.267,0,2.481,0.113,3.695,0.282    l9.167-33.91h96.146c1.916,0,3.471-1.553,3.471-3.471s-1.555-3.469-3.471-3.469H309.394z" style="fill-rule:evenodd;clip-rule:evenodd;"/></g></g><g id="Layer_1"/></svg>