<?xml version="1.0" encoding="utf-8"?>
<!-- Generator: Adobe Illustrator 19.2.1, SVG Export Plug-In . SVG Version: 6.00 Build 0)  -->
<svg version="1.1" xmlns="http://www.w3.org/2000/svg" xmlns:xlink="http://www.w3.org/1999/xlink" x="0px" y="0px"
	 viewBox="0 0 652 652" style="enable-background:new 0 0 652 652;" xml:space="preserve">
<style type="text/css">
	.st0{display:none;}
	.st1{display:inline;}
	.st2{fill:#000000;}
</style>
<g id="Layer_1" class="st0">
	<g class="st1">
		<path class="st2" d="M240,670.9l1.6-0.1c0.1,0.6,0.3,1.2,0.5,1.6c0.3,0.4,0.7,0.7,1.3,1c0.6,0.3,1.2,0.4,2,0.4
			c0.7,0,1.2-0.1,1.7-0.3s0.9-0.5,1.1-0.8s0.4-0.7,0.4-1.1c0-0.4-0.1-0.8-0.4-1.1s-0.6-0.6-1.2-0.8c-0.3-0.1-1.1-0.3-2.3-0.6
			s-2-0.6-2.5-0.8c-0.6-0.3-1.1-0.7-1.4-1.2c-0.3-0.5-0.5-1-0.5-1.6c0-0.7,0.2-1.3,0.6-1.8s0.9-1,1.6-1.3s1.5-0.4,2.4-0.4
			c1,0,1.8,0.2,2.5,0.5c0.7,0.3,1.3,0.8,1.7,1.4s0.6,1.3,0.6,2l-1.6,0.1c-0.1-0.8-0.4-1.4-0.9-1.8c-0.5-0.4-1.3-0.6-2.2-0.6
			c-1,0-1.8,0.2-2.3,0.6c-0.5,0.4-0.7,0.8-0.7,1.4c0,0.5,0.2,0.8,0.5,1.1c0.3,0.3,1.2,0.6,2.6,0.9c1.4,0.3,2.3,0.6,2.9,0.8
			c0.8,0.3,1.3,0.8,1.7,1.3s0.5,1.1,0.5,1.8c0,0.7-0.2,1.3-0.6,1.9c-0.4,0.6-1,1.1-1.7,1.4c-0.7,0.3-1.6,0.5-2.5,0.5
			c-1.2,0-2.1-0.2-2.9-0.5c-0.8-0.3-1.4-0.9-1.9-1.5C240.3,672.6,240,671.8,240,670.9z"/>
		<path class="st2" d="M258.8,672.1l1.6,0.2c-0.3,1-0.7,1.7-1.4,2.2s-1.6,0.8-2.7,0.8c-1.4,0-2.4-0.4-3.2-1.3
			c-0.8-0.8-1.2-2-1.2-3.5c0-1.6,0.4-2.8,1.2-3.7s1.9-1.3,3.1-1.3c1.2,0,2.3,0.4,3.1,1.3s1.2,2,1.2,3.6c0,0.1,0,0.2,0,0.4h-7
			c0.1,1,0.3,1.8,0.9,2.4s1.2,0.8,2,0.8c0.6,0,1.1-0.2,1.5-0.5S258.6,672.7,258.8,672.1z M253.6,669.5h5.2c-0.1-0.8-0.3-1.4-0.6-1.8
			c-0.5-0.6-1.2-0.9-2-0.9c-0.7,0-1.3,0.2-1.8,0.7S253.6,668.7,253.6,669.5z"/>
		<path class="st2" d="M268.8,672.1l1.6,0.2c-0.3,1-0.7,1.7-1.4,2.2s-1.6,0.8-2.7,0.8c-1.4,0-2.4-0.4-3.2-1.3
			c-0.8-0.8-1.2-2-1.2-3.5c0-1.6,0.4-2.8,1.2-3.7s1.9-1.3,3.1-1.3c1.2,0,2.3,0.4,3.1,1.3s1.2,2,1.2,3.6c0,0.1,0,0.2,0,0.4h-7
			c0.1,1,0.3,1.8,0.9,2.4s1.2,0.8,2,0.8c0.6,0,1.1-0.2,1.5-0.5S268.6,672.7,268.8,672.1z M263.6,669.5h5.2c-0.1-0.8-0.3-1.4-0.6-1.8
			c-0.5-0.6-1.2-0.9-2-0.9c-0.7,0-1.3,0.2-1.8,0.7S263.7,668.7,263.6,669.5z"/>
		<path class="st2" d="M272.4,675.1v-12.9h1.6v7.3l3.7-3.8h2l-3.6,3.5l3.9,5.9h-2l-3.1-4.8l-1.1,1.1v3.7H272.4z"/>
		<path class="st2" d="M285.3,675.1l-5-12.9h1.8l3.3,9.4c0.3,0.8,0.5,1.5,0.7,2.1c0.2-0.7,0.4-1.4,0.7-2.1l3.5-9.4h1.7l-5,12.9
			H285.3z"/>
		<path class="st2" d="M298.8,672.1l1.6,0.2c-0.3,1-0.7,1.7-1.4,2.2s-1.6,0.8-2.7,0.8c-1.4,0-2.4-0.4-3.2-1.3
			c-0.8-0.8-1.2-2-1.2-3.5c0-1.6,0.4-2.8,1.2-3.7s1.9-1.3,3.1-1.3c1.2,0,2.3,0.4,3.1,1.3s1.2,2,1.2,3.6c0,0.1,0,0.2,0,0.4h-7
			c0.1,1,0.3,1.8,0.9,2.4s1.2,0.8,2,0.8c0.6,0,1.1-0.2,1.5-0.5S298.6,672.7,298.8,672.1z M293.6,669.5h5.2c-0.1-0.8-0.3-1.4-0.6-1.8
			c-0.5-0.6-1.2-0.9-2-0.9c-0.7,0-1.3,0.2-1.8,0.7S293.7,668.7,293.6,669.5z"/>
		<path class="st2" d="M308.5,671.7l1.6,0.2c-0.2,1.1-0.6,1.9-1.3,2.5c-0.7,0.6-1.6,0.9-2.6,0.9c-1.3,0-2.3-0.4-3.1-1.3
			c-0.8-0.8-1.2-2-1.2-3.6c0-1,0.2-1.9,0.5-2.6s0.8-1.3,1.5-1.7c0.7-0.4,1.4-0.6,2.2-0.6c1,0,1.8,0.3,2.5,0.8s1.1,1.2,1.2,2.2
			l-1.5,0.2c-0.1-0.6-0.4-1.1-0.8-1.4s-0.8-0.5-1.3-0.5c-0.8,0-1.4,0.3-1.9,0.9c-0.5,0.6-0.7,1.5-0.7,2.7c0,1.3,0.2,2.2,0.7,2.7
			s1.1,0.9,1.9,0.9c0.6,0,1.1-0.2,1.6-0.6S308.4,672.4,308.5,671.7z"/>
		<path class="st2" d="M314.9,673.7l0.2,1.4c-0.4,0.1-0.8,0.1-1.2,0.1c-0.6,0-1-0.1-1.3-0.3s-0.5-0.4-0.7-0.7s-0.2-0.9-0.2-1.9V667
			h-1.2v-1.2h1.2v-2.3l1.6-0.9v3.3h1.6v1.2h-1.6v5.5c0,0.5,0,0.7,0.1,0.9s0.1,0.2,0.3,0.3c0.1,0.1,0.3,0.1,0.5,0.1
			C314.4,673.7,314.6,673.7,314.9,673.7z"/>
		<path class="st2" d="M315.9,670.4c0-1.7,0.5-3,1.4-3.8c0.8-0.7,1.8-1,2.9-1c1.3,0,2.3,0.4,3.1,1.3s1.2,2,1.2,3.5
			c0,1.2-0.2,2.1-0.5,2.8c-0.4,0.7-0.9,1.2-1.6,1.6s-1.4,0.6-2.3,0.6c-1.3,0-2.4-0.4-3.2-1.3C316.3,673.2,315.9,672,315.9,670.4z
			 M317.5,670.4c0,1.2,0.3,2.1,0.8,2.7c0.5,0.6,1.2,0.9,2,0.9c0.8,0,1.4-0.3,2-0.9s0.8-1.5,0.8-2.7c0-1.2-0.3-2-0.8-2.6
			c-0.5-0.6-1.2-0.9-2-0.9c-0.8,0-1.4,0.3-2,0.9S317.5,669.2,317.5,670.4z"/>
		<path class="st2" d="M326.4,675.1v-9.3h1.4v1.4c0.4-0.7,0.7-1.1,1-1.3c0.3-0.2,0.6-0.3,1-0.3c0.5,0,1.1,0.2,1.6,0.5l-0.5,1.5
			c-0.4-0.2-0.8-0.3-1.2-0.3c-0.3,0-0.7,0.1-0.9,0.3s-0.5,0.5-0.6,0.9c-0.2,0.6-0.3,1.2-0.3,1.8v4.9H326.4z"/>
		<path class="st2" d="M332.6,675.1v-12.9h1.7v11.4h6.3v1.5H332.6z"/>
		<path class="st2" d="M341.9,670.4c0-1.7,0.5-3,1.4-3.8c0.8-0.7,1.8-1,2.9-1c1.3,0,2.3,0.4,3.1,1.3s1.2,2,1.2,3.5
			c0,1.2-0.2,2.1-0.5,2.8c-0.4,0.7-0.9,1.2-1.6,1.6s-1.4,0.6-2.3,0.6c-1.3,0-2.4-0.4-3.2-1.3C342.3,673.2,341.9,672,341.9,670.4z
			 M343.5,670.4c0,1.2,0.3,2.1,0.8,2.7c0.5,0.6,1.2,0.9,2,0.9c0.8,0,1.4-0.3,2-0.9s0.8-1.5,0.8-2.7c0-1.2-0.3-2-0.8-2.6
			c-0.5-0.6-1.2-0.9-2-0.9c-0.8,0-1.4,0.3-2,0.9S343.5,669.2,343.5,670.4z"/>
		<path class="st2" d="M352.2,675.8l1.5,0.2c0.1,0.5,0.2,0.8,0.5,1c0.4,0.3,0.9,0.4,1.6,0.4c0.7,0,1.3-0.1,1.7-0.4s0.7-0.7,0.8-1.2
			c0.1-0.3,0.1-1,0.1-2c-0.7,0.8-1.6,1.2-2.6,1.2c-1.3,0-2.3-0.5-3-1.4s-1.1-2-1.1-3.3c0-0.9,0.2-1.7,0.5-2.5
			c0.3-0.8,0.8-1.3,1.4-1.7s1.3-0.6,2.2-0.6c1.1,0,2,0.4,2.7,1.3v-1.1h1.5v8.1c0,1.5-0.1,2.5-0.4,3.1c-0.3,0.6-0.8,1.1-1.4,1.4
			c-0.6,0.4-1.4,0.5-2.4,0.5c-1.1,0-2-0.3-2.7-0.8C352.5,677.6,352.2,676.9,352.2,675.8z M353.5,670.2c0,1.2,0.2,2.1,0.7,2.7
			s1.1,0.8,1.8,0.8c0.7,0,1.3-0.3,1.8-0.8s0.7-1.4,0.7-2.6c0-1.1-0.3-2-0.8-2.6c-0.5-0.6-1.1-0.9-1.8-0.9c-0.7,0-1.3,0.3-1.8,0.9
			C353.7,668.3,353.5,669.1,353.5,670.2z"/>
		<path class="st2" d="M361.9,670.4c0-1.7,0.5-3,1.4-3.8c0.8-0.7,1.8-1,2.9-1c1.3,0,2.3,0.4,3.1,1.3s1.2,2,1.2,3.5
			c0,1.2-0.2,2.1-0.5,2.8c-0.4,0.7-0.9,1.2-1.6,1.6s-1.4,0.6-2.3,0.6c-1.3,0-2.4-0.4-3.2-1.3C362.3,673.2,361.9,672,361.9,670.4z
			 M363.5,670.4c0,1.2,0.3,2.1,0.8,2.7c0.5,0.6,1.2,0.9,2,0.9c0.8,0,1.4-0.3,2-0.9s0.8-1.5,0.8-2.7c0-1.2-0.3-2-0.8-2.6
			c-0.5-0.6-1.2-0.9-2-0.9c-0.8,0-1.4,0.3-2,0.9S363.5,669.2,363.5,670.4z"/>
		<path class="st2" d="M372.9,675.1v-1.8h1.8v1.8H372.9z"/>
		<path class="st2" d="M386.9,670.6l1.7,0.4c-0.4,1.4-1,2.5-1.9,3.2s-2.1,1.1-3.4,1.1c-1.4,0-2.5-0.3-3.4-0.8
			c-0.9-0.6-1.5-1.4-2-2.5c-0.5-1.1-0.7-2.2-0.7-3.5c0-1.3,0.3-2.5,0.8-3.5c0.5-1,1.2-1.8,2.2-2.3c0.9-0.5,2-0.8,3.1-0.8
			c1.3,0,2.4,0.3,3.3,1s1.5,1.6,1.8,2.8l-1.7,0.4c-0.3-0.9-0.7-1.6-1.3-2s-1.3-0.6-2.1-0.6c-1,0-1.8,0.2-2.5,0.7
			c-0.7,0.5-1.1,1.1-1.4,1.9c-0.3,0.8-0.4,1.6-0.4,2.5c0,1.1,0.2,2.1,0.5,2.9c0.3,0.8,0.8,1.4,1.5,1.8s1.4,0.6,2.2,0.6
			c1,0,1.8-0.3,2.4-0.8S386.7,671.6,386.9,670.6z"/>
		<path class="st2" d="M389.9,670.4c0-1.7,0.5-3,1.4-3.8c0.8-0.7,1.8-1,2.9-1c1.3,0,2.3,0.4,3.1,1.3s1.2,2,1.2,3.5
			c0,1.2-0.2,2.1-0.5,2.8c-0.4,0.7-0.9,1.2-1.6,1.6s-1.4,0.6-2.3,0.6c-1.3,0-2.4-0.4-3.2-1.3C390.3,673.2,389.9,672,389.9,670.4z
			 M391.5,670.4c0,1.2,0.3,2.1,0.8,2.7c0.5,0.6,1.2,0.9,2,0.9c0.8,0,1.4-0.3,2-0.9s0.8-1.5,0.8-2.7c0-1.2-0.3-2-0.8-2.6
			c-0.5-0.6-1.2-0.9-2-0.9c-0.8,0-1.4,0.3-2,0.9S391.5,669.2,391.5,670.4z"/>
		<path class="st2" d="M400.5,675.1v-9.3h1.4v1.3c0.3-0.5,0.7-0.8,1.2-1.1s1-0.4,1.7-0.4c0.7,0,1.3,0.1,1.7,0.4
			c0.4,0.3,0.8,0.7,0.9,1.2c0.7-1.1,1.7-1.6,2.9-1.6c0.9,0,1.6,0.3,2.1,0.8s0.7,1.3,0.7,2.4v6.4h-1.6v-5.9c0-0.6-0.1-1.1-0.2-1.4
			c-0.1-0.3-0.3-0.5-0.6-0.7s-0.6-0.3-0.9-0.3c-0.7,0-1.2,0.2-1.6,0.7c-0.4,0.4-0.7,1.1-0.7,2.1v5.4h-1.6V669c0-0.7-0.1-1.2-0.4-1.6
			s-0.7-0.5-1.3-0.5c-0.4,0-0.9,0.1-1.2,0.4c-0.4,0.2-0.7,0.6-0.8,1s-0.3,1.1-0.3,2v4.8H400.5z"/>
	</g>
</g>
<g id="Layer_2">
	<polygon points="124.5,355.2 124.5,250.1 96.8,250.1 96.8,289.3 43.2,289.3 43.2,250.1 15.5,250.1 15.5,355.2 43.2,355.2 
		43.2,309.8 96.8,309.8 96.8,355.2 	"/>
	<g>
		<path d="M158.8,357c10.8,0,21.4-3.1,27.3-10.8h0.3v9.1h24.5v-36.7c0-24-8.3-37.3-39.3-37.3c-14,0-28.2,3.9-37.9,11.6l14.2,12.2
			c5.7-5.3,12.9-8.6,21.6-8.6c9.2,0,17,5,17,12.9c-22.1,0-58.3,0.4-58.3,25.4C128.2,349.3,142.7,357,158.8,357 M179.9,323.6h6.6v4.8
			c0,8.9-9.7,13.5-20.2,13.5c-5.8,0-12.6-2.5-12.6-7.9C153.7,324.2,171.8,323.6,179.9,323.6"/>
		<path d="M243.5,319.3c0-9.3,2.1-18.4,16-18.4c13.6,0,13.8,10.7,13.8,19v35.3h26.6v-39.8c0-19.3-5-34.1-31.9-34.1
			c-12.9,0-21.6,5.9-25.2,11.6h-0.4V283h-25.5v72.2h26.6V319.3z"/>
		<path d="M352.6,357c26.6,0,47.8-14.8,47.8-37.9c0-23-21.3-37.9-47.8-37.9c-26.6,0-47.8,14.8-47.8,37.9
			C304.8,342.1,326.1,357,352.6,357 M352.6,300.9c13.3,0,21.3,7.4,21.3,18.3c0,10.8-8,18.3-21.3,18.3c-13.3,0-21.3-7.4-21.3-18.3
			C331.4,308.3,339.4,300.9,352.6,300.9"/>
		<polygon points="456.6,355.2 490.6,283 463.9,283 443.7,332 443.3,332 421.5,283 392.8,283 428.5,355.2 		"/>
		<path d="M531.4,357c13.8,0,27.8-5.2,36.3-14.3l-18.6-11.4c-4.4,5-10.3,8.8-19,8.8c-10.3,0-17.9-5.5-20-13.9h61.6v-7
			c0-23-15.6-37.8-40.4-37.8c-26.6,0-47.8,14.8-47.8,37.8C483.5,342.1,504.8,357,531.4,357 M528.9,297.3c9.6,0,16.5,6.2,16.3,13.7
			h-35.1C510.8,304,517.2,297.3,528.9,297.3"/>
		<path d="M603.8,325.1c0-14.4,2.5-24.2,22.7-24.2c3.9,0,7.6,0.6,11.3,1.5V282c-2.5-0.6-5.8-0.7-8.9-0.7c-11.7,0-19.1,4.6-24.8,13.4
			h-0.4V283h-26.6v72.2h26.6V325.1z"/>
		<path d="M120.1,364.2l2.5,0.2c2.7,0.3,2.7,0.6,2.7,8.9v23.8c0,8.3,0,8.7-2.7,9l-2.5,0.2v1.5h16.6v-1.5l-2.5-0.2
			c-2.7-0.3-2.7-0.6-2.7-9v-23.8c0-8.3,0-8.7,2.7-8.9l2.5-0.2v-1.5h-16.6V364.2z"/>
		<path d="M174,401.1v-10.2c0-7.9,0-15.2-10.7-15.2c-5.2,0-8.9,2.9-10.4,4.3v-4.3c-2.4,0-8.6,1.8-10.6,2.4l0.3,1.6l1.5-0.4
			c0.1,0,0.6-0.1,1-0.1c1.9,0,1.9,1.9,1.9,8.6v13.2c0,4.4-0.6,4.7-3,5l-1.6,0.2v1.5h15.2v-1.5l-1.6-0.2c-2.5-0.3-3.1-0.6-3.1-5
			v-18.5c1.2-1.6,3.4-3.7,7-3.7c8.1,0,8.1,6.6,8.1,13v9.1c0,4.4-0.6,4.7-3,5l-1.6,0.2v1.5h15.2v-1.5l-1.6-0.2
			C174.6,405.8,174,405.5,174,401.1"/>
		<path d="M189.4,382.8c0-3,1.8-4.9,4.4-4.9c4.4,0,6.6,4.9,6.6,8h2.1c0-3.6-0.2-5.8-0.9-8.3c-1.5-0.9-3.6-2-7.2-2
			c-5.9,0-10.9,3.1-10.9,8.7c0,11.1,15.2,7.8,15.2,17.1c0,2.4-1.8,5.1-4.9,5.1c-5.5,0-7.8-4.4-9.2-8.9h-1.8c0,2.7,0.3,6.1,1.3,9.1
			c1.8,0.8,4.2,2,8.7,2c6.5,0,11.8-3.1,11.8-9.6C204.5,388.3,189.4,390.6,189.4,382.8"/>
		<path d="M242.7,405.1c-0.3,0.1-0.8,0.1-1.1,0.1c-1.9,0-1.9-2.8-1.9-8.6v-20.9c-2.4,0-8.6,1.8-10.6,2.5l0.3,1.6l1.5-0.4
			c0.1,0,0.6-0.1,1-0.1c1.9,0,1.9,1.9,1.9,8.6v15.5c-1,0.8-3.6,2.2-7.1,2.2c-6.8,0-8.2-4-8.2-9.4v-20.5c-2.4,0-8.6,1.8-10.6,2.5
			l0.3,1.6l1.5-0.4c0.1,0,0.6-0.1,0.9-0.1c1.9,0,1.9,1.9,1.9,8.6v8.6c0,7.4,0.9,12.3,11.1,12.3c5.3,0,8.5-2,10.5-3.4
			c0.3,1.5,1,2.6,1.5,3.4c3.6-0.7,6.1-1.2,9.1-2.3l-0.4-1.6L242.7,405.1z"/>
		<path d="M258.7,380.1c0-1.8-0.2-3.3-0.5-4.4c-1.9,0-6.5,1.3-9.9,2.5l0.5,1.6l0.6-0.2c0.6-0.1,1.1-0.4,1.6-0.4
			c1.9,0,1.9,1.5,1.9,8.5v13.3c0,4.7-0.6,4.7-3,5l-1.6,0.2v1.5h16.3v-1.5l-1.6-0.2c-3.6-0.3-4.2-0.3-4.2-5v-18.3
			c0-1,1.1-2.7,3.3-2.7c1,0,4.6,1.2,5.6,1.5c1.6-1.2,2.5-2.3,3.5-3.9c-0.9-0.5-3.1-2-5.2-2C262.6,375.7,259.7,379,258.7,380.1"/>
		<path d="M300.7,406.4c-3.7,0-3.7-5.1-3.7-9.9v-9.8c0-7-1.6-11.1-9.4-11.1c-7.2,0-11.6,4.6-13.7,7.3c0.5,1.2,1,1.9,1.8,2.7h0.5
			c1.3-2.5,3-6.8,8.5-6.8c5.1,0,6.4,3.9,6.4,8.4v1.6c-6,1.8-17.8,4.4-17.8,13.3c0,3.8,3.4,6.6,8.5,6.6c5.3,0,7.9-1.4,10-2.9
			c0.7,1.4,1.9,2.9,5.4,2.9c2.9,0,4.3-1.1,5.2-1.7l-0.3-1C301.6,406.3,301.4,406.4,300.7,406.4 M291,403.6c-0.5,0.7-2.2,2.8-5.2,2.8
			c-3.9,0-6.4-2.3-6.4-6.2c0-6.4,6.7-8.1,10.6-8.1h1V403.6z"/>
		<path d="M337.1,401.1v-10.2c0-7.9,0-15.2-10.6-15.2c-5.2,0-8.9,2.9-10.5,4.3v-4.3c-2.4,0-8.6,1.8-10.6,2.4l0.3,1.6l1.5-0.4
			c0.1,0,0.6-0.1,1-0.1c1.9,0,1.9,1.9,1.9,8.6v13.2c0,4.4-0.6,4.7-3,5l-1.6,0.2v1.5h15.2v-1.5l-1.6-0.2c-2.5-0.3-3.1-0.6-3.1-5
			v-18.5c1.2-1.6,3.4-3.7,7-3.7c8.1,0,8.1,6.6,8.1,13v9.1c0,4.4-0.6,4.7-3,5l-1.6,0.2v1.5h15.2v-1.5l-1.6-0.2
			C337.7,405.8,337.1,405.5,337.1,401.1"/>
		<path d="M365.7,406.4c-7.8,0-13.3-5.1-13.3-15.9c0-7.7,4.1-11.6,9-11.6c4.4,0,7,2.3,8,3.8h0.4c1-1.6,1.8-3.6,1.8-5
			c-1.6-1.2-4.6-2-7.9-2c-8.3,0-17.5,5.6-17.5,18.7c0,9.8,8.1,14.4,15.9,14.4c5.5,0,9-1.6,10.8-2.9l-0.5-1.6
			C371.3,404.9,368.4,406.4,365.7,406.4"/>
		<path d="M391,375.7c-7.8,0-15.8,6.1-15.8,17.7c0,9.7,7,15.4,15.6,15.4c6.2,0,10.8-2.8,11.9-3.8l-0.8-1.6c-0.9,0.5-3.5,2.2-7.7,2.2
			c-9.2,0-12.5-8.1-12.8-12.3c5.9-1.4,13.8-3.5,21.6-7.3C402.1,382.3,400.2,375.7,391,375.7 M381.4,390.3c0-5,1.8-12.2,7.6-12.2
			c5.2,0,6.9,4.1,7.8,8.3C392.1,388,386.4,389.4,381.4,390.3"/>
		<path d="M453.1,394l2.4,0.2c4.8,0.3,4.8,0.6,4.8,8.9v2.5c-2.4,0.6-5.5,0.9-8,0.9c-13.4,0-19.3-10.8-19.3-22.5
			c0-12.8,7-20.1,18.2-20.1c11.7,0,12.6,8.3,13.2,11.1l1.8-0.4c0-3.4-0.5-7.4-1.1-10.1c-1.8-1.1-7-2.8-13.9-2.8
			c-10.8,0-25.5,5.5-25.5,23.7c0,17.4,12.3,23.4,26,23.4c7.3,0,14.8-2.5,17.1-3.4l-0.5-1.5h-0.7c-1.1,0-1.1-0.4-1.1-2.4
			c0-6.6,0-7,1.3-7.2l2.5-0.2v-1.5h-17.3V394z"/>
		<path d="M485,380.1c0-1.8-0.2-3.3-0.5-4.4c-1.9,0-6.5,1.3-9.9,2.5l0.6,1.6l0.6-0.2c0.5-0.1,1.1-0.4,1.6-0.4c1.9,0,1.9,1.5,1.9,8.5
			v13.3c0,4.7-0.6,4.7-3,5l-1.6,0.2v1.5H491v-1.5l-1.6-0.2c-3.6-0.3-4.2-0.3-4.2-5v-18.3c0-1,1.1-2.7,3.3-2.7c1,0,4.7,1.2,5.6,1.5
			c1.6-1.2,2.5-2.3,3.5-3.9c-0.9-0.5-3.1-2-5.2-2C489,375.7,486.1,379,485,380.1"/>
		<path d="M516.1,375.7c-8.4,0-16.7,5.8-16.7,17.1c0,10.7,7.7,16,16.4,16c8.7,0,16.8-5.6,16.8-17.4
			C532.5,382,525.9,375.7,516.1,375.7 M516.9,406.4c-7.7,0-11.3-6.8-11.3-14.4c0-6.6,2.4-13.9,9.6-13.9c8,0,11.1,7,11.1,15.2
			C526.3,400.5,523.1,406.4,516.9,406.4"/>
		<path d="M571.5,405.1c-0.3,0.1-0.8,0.1-1.1,0.1c-1.9,0-1.9-2.8-1.9-8.6v-20.9c-2.4,0-8.6,1.8-10.6,2.5l0.3,1.6l1.5-0.4
			c0.1,0,0.6-0.1,1-0.1c1.9,0,1.9,1.9,1.9,8.6v15.5c-1,0.8-3.6,2.2-7.1,2.2c-6.8,0-8.2-4-8.2-9.4v-20.5c-2.4,0-8.6,1.8-10.6,2.5
			l0.3,1.6l1.5-0.4c0.1,0,0.6-0.1,1-0.1c1.9,0,1.9,1.9,1.9,8.6v8.6c0,7.4,1,12.3,11.1,12.3c5.3,0,8.5-2,10.5-3.4
			c0.3,1.5,1,2.6,1.5,3.4c3.5-0.7,6.1-1.2,9.1-2.3l-0.4-1.6L571.5,405.1z"/>
		<path d="M596.2,375.7c-4.6,0-7.6,2-9.1,2.9c0-0.5-0.3-2.1-0.8-2.9c-2.4,0-7.8,1.8-9.8,2.4l0.3,1.6l1.5-0.4c0.1,0,0.6-0.1,0.9-0.1
			c1.9,0,1.9,1.9,1.9,8.6v28.3c0,4.2-0.6,4.7-3,5l-1.6,0.2v1.5h15.2v-1.5l-1.6-0.2c-2.5-0.3-3.1-0.7-3.1-5v-8
			c1.1,0.3,2.7,0.7,5.6,0.7c7.5,0,18.4-4.4,18.4-18.2C611.1,381,604.3,375.7,596.2,375.7 M594.6,406.4c-4.4,0-5.8-1.3-7.6-2.5v-23.5
			c1.1-0.5,2.8-1.6,5.7-1.6c6.2,0,12,4.2,12,13.2C604.8,400.8,601.4,406.4,594.6,406.4"/>
		<path d="M132.7,240.6c1-5.3,1.1-6,7.6-6h2.4v22c0,5.6,0,5.9-2.5,6l-1.7,0.1v1h12.8v-1l-1.7-0.1c-2.6-0.2-2.6-0.4-2.6-6v-22h2.4
			c6.5,0,6.6,0.7,7.6,6h1.1c0-0.2,0.1-1.4,0.1-2c0-2.1-0.3-4.3-0.5-5.3H132c-0.2,1-0.5,3.2-0.5,5.3c0,0.6,0.1,1.8,0.1,2H132.7z"/>
		<path d="M168.9,262.7l-1.1-0.1c-1.7-0.2-2.1-0.6-2.1-3.4v-12.6c0.8-0.7,2.5-2.3,5.1-2.3c3.9,0,5.4,2.7,5.4,6.6v8.4
			c0,2.8-0.4,3.2-2,3.4l-1.1,0.1v1h10.3v-1l-1.1-0.1c-1.7-0.2-2.1-0.6-2.1-3.4v-7.8c0-5-0.6-9.3-7.3-9.3c-3.8,0-5.9,1.7-7.3,2.8
			v-14.3c-1.9,0-5.7,0.4-7.1,0.7l0.1,1l0.7-0.1c0.1,0,0.4,0,0.6,0c1.7,0,1.7,2.1,1.7,5.8v21.3c0,2.8-0.4,3.2-2,3.4l-1.1,0.1v1h10.3
			V262.7z"/>
		<path d="M194.9,264.4c4.2,0,7.3-1.9,8.1-2.6l-0.5-1.1c-0.7,0.3-2.4,1.5-5.2,1.5c-6.2,0-8.5-5.4-8.6-8.3c4-0.9,9.3-2.4,14.6-4.9
			c-0.6-2.5-1.9-7-8.1-7c-5.3,0-10.7,4.2-10.7,12C184.3,260.5,189.1,264.4,194.9,264.4 M193.7,243.6c3.5,0,4.7,2.8,5.3,5.6
			c-3.2,1.1-7.1,2-10.4,2.6C188.5,248.5,189.7,243.6,193.7,243.6"/>
		<path d="M627.9,366.9c-6.2,0-11.3,4.9-11.3,11.3c0,6.4,5.1,11.3,11.3,11.3c6.1,0,11.3-4.9,11.3-11.3
			C639.2,371.8,634,366.9,627.9,366.9 M627.9,387.9c-5.2,0-9.3-4.2-9.3-9.6c0-5.5,4.1-9.6,9.3-9.6c5.1,0,9.3,4.2,9.3,9.6
			C637.2,383.7,633,387.9,627.9,387.9"/>
		<path d="M633.2,375.4c0-2.5-1.5-3.8-4.6-3.8h-5v13.2h2v-5.7h2.2l3.6,5.7h2.1l-3.8-5.8C631.6,378.8,633.2,377.8,633.2,375.4
			 M627.6,377.5h-2.1v-4.3h2.6c1.4,0,2.9,0.2,2.9,2C631.1,377.4,629.4,377.5,627.6,377.5"/>
	</g>
</g>
</svg>
